<mxfile host="app.diagrams.net" modified="2022-05-07T19:50:29.911Z" agent="5.0 (Windows NT 10.0; Win64; x64) AppleWebKit/537.36 (KHTML, like Gecko) Chrome/100.0.4896.127 Safari/537.36 Edg/100.0.1185.50" etag="o3P40YL3mkuNDt-4TXq5" version="18.0.1" type="github">
  <diagram name="Page-1" id="5f0bae14-7c28-e335-631c-24af17079c00">
    <mxGraphModel dx="2700" dy="737" grid="1" gridSize="10" guides="1" tooltips="1" connect="1" arrows="1" fold="1" page="1" pageScale="1" pageWidth="1100" pageHeight="850" background="none" math="0" shadow="0">
      <root>
        <mxCell id="0" />
        <mxCell id="1" parent="0" />
        <mxCell id="EhGMXCnS99L2GmcN4ixf-112" style="edgeStyle=elbowEdgeStyle;rounded=0;orthogonalLoop=1;jettySize=auto;elbow=vertical;html=1;exitX=0;exitY=0;exitDx=65;exitDy=0;exitPerimeter=0;" parent="1" source="39150e848f15840c-1" edge="1">
          <mxGeometry relative="1" as="geometry">
            <mxPoint x="700" y="134" as="targetPoint" />
            <Array as="points">
              <mxPoint x="620" y="134" />
            </Array>
          </mxGeometry>
        </mxCell>
        <mxCell id="39150e848f15840c-1" value="Proje" style="verticalAlign=top;align=left;spacingTop=8;spacingLeft=2;spacingRight=12;shape=cube;size=10;direction=south;fontStyle=4;html=1;rounded=0;shadow=0;comic=0;labelBackgroundColor=none;strokeWidth=1;fontFamily=Verdana;fontSize=12;fillColor=#d5e8d4;strokeColor=#82b366;" parent="1" vertex="1">
          <mxGeometry x="120" y="70" width="230" height="140" as="geometry" />
        </mxCell>
        <mxCell id="39150e848f15840c-4" value="&lt;div&gt;«interface»&lt;b&gt;&lt;br&gt;&lt;/b&gt;&lt;/div&gt;&lt;div&gt;&lt;b&gt;project&lt;/b&gt;&lt;/div&gt;" style="html=1;rounded=0;shadow=0;comic=0;labelBackgroundColor=none;strokeWidth=1;fontFamily=Verdana;fontSize=12;align=center;" parent="1" vertex="1">
          <mxGeometry x="180" y="125" width="110" height="50" as="geometry" />
        </mxCell>
        <mxCell id="39150e848f15840c-11" style="edgeStyle=none;rounded=0;html=1;dashed=1;labelBackgroundColor=none;startArrow=none;startFill=0;startSize=8;endArrow=open;endFill=0;endSize=16;fontFamily=Verdana;fontSize=12;exitX=0;exitY=0;exitDx=0;exitDy=40;exitPerimeter=0;" parent="1" source="EhGMXCnS99L2GmcN4ixf-6" edge="1">
          <mxGeometry relative="1" as="geometry">
            <mxPoint x="160" y="210" as="targetPoint" />
          </mxGeometry>
        </mxCell>
        <mxCell id="EhGMXCnS99L2GmcN4ixf-6" value="&lt;div&gt;Parça1&lt;/div&gt;&lt;div&gt;&lt;pre&gt;&lt;br&gt;&lt;/pre&gt;&lt;/div&gt;" style="verticalAlign=top;align=left;spacingTop=8;spacingLeft=2;spacingRight=12;shape=cube;size=10;direction=south;fontStyle=4;html=1;rounded=0;shadow=0;comic=0;labelBackgroundColor=none;strokeWidth=1;fontFamily=Verdana;fontSize=12;fillColor=#dae8fc;strokeColor=#6c8ebf;" parent="1" vertex="1">
          <mxGeometry x="30" y="270" width="100" height="80" as="geometry" />
        </mxCell>
        <mxCell id="EhGMXCnS99L2GmcN4ixf-7" value="Parça2" style="verticalAlign=top;align=left;spacingTop=8;spacingLeft=2;spacingRight=12;shape=cube;size=10;direction=south;fontStyle=4;html=1;rounded=0;shadow=0;comic=0;labelBackgroundColor=none;strokeWidth=1;fontFamily=Verdana;fontSize=12;fillColor=#ffe6cc;strokeColor=#d79b00;" parent="1" vertex="1">
          <mxGeometry x="160" y="270" width="100" height="80" as="geometry" />
        </mxCell>
        <mxCell id="EhGMXCnS99L2GmcN4ixf-8" value="Parça3" style="verticalAlign=top;align=left;spacingTop=8;spacingLeft=2;spacingRight=12;shape=cube;size=10;direction=south;fontStyle=4;html=1;rounded=0;shadow=0;comic=0;labelBackgroundColor=none;strokeWidth=1;fontFamily=Verdana;fontSize=12;fillColor=#fff2cc;strokeColor=#d6b656;" parent="1" vertex="1">
          <mxGeometry x="290" y="270" width="100" height="80" as="geometry" />
        </mxCell>
        <mxCell id="EhGMXCnS99L2GmcN4ixf-9" value="Parça4" style="verticalAlign=top;align=left;spacingTop=8;spacingLeft=2;spacingRight=12;shape=cube;size=10;direction=south;fontStyle=4;html=1;rounded=0;shadow=0;comic=0;labelBackgroundColor=none;strokeWidth=1;fontFamily=Verdana;fontSize=12;fillColor=#f8cecc;strokeColor=#b85450;" parent="1" vertex="1">
          <mxGeometry x="30" y="407" width="100" height="80" as="geometry" />
        </mxCell>
        <mxCell id="EhGMXCnS99L2GmcN4ixf-10" value="Parça5" style="verticalAlign=top;align=left;spacingTop=8;spacingLeft=2;spacingRight=12;shape=cube;size=10;direction=south;fontStyle=4;html=1;rounded=0;shadow=0;comic=0;labelBackgroundColor=none;strokeWidth=1;fontFamily=Verdana;fontSize=12;fillColor=#e1d5e7;strokeColor=#9673a6;" parent="1" vertex="1">
          <mxGeometry x="160" y="407" width="100" height="80" as="geometry" />
        </mxCell>
        <mxCell id="EhGMXCnS99L2GmcN4ixf-11" value="Parça6" style="verticalAlign=top;align=left;spacingTop=8;spacingLeft=2;spacingRight=12;shape=cube;size=10;direction=south;fontStyle=4;html=1;rounded=0;shadow=0;comic=0;labelBackgroundColor=none;strokeWidth=1;fontFamily=Verdana;fontSize=12;fillColor=none;" parent="1" vertex="1">
          <mxGeometry x="290" y="407" width="100" height="80" as="geometry" />
        </mxCell>
        <mxCell id="EhGMXCnS99L2GmcN4ixf-13" style="edgeStyle=none;rounded=0;html=1;dashed=1;labelBackgroundColor=none;startArrow=none;startFill=0;startSize=8;endArrow=open;endFill=0;endSize=16;fontFamily=Verdana;fontSize=12;exitX=0;exitY=0;exitDx=0;exitDy=40;exitPerimeter=0;entryX=0;entryY=0;entryDx=140;entryDy=120;entryPerimeter=0;" parent="1" source="EhGMXCnS99L2GmcN4ixf-7" target="39150e848f15840c-1" edge="1">
          <mxGeometry relative="1" as="geometry">
            <mxPoint x="90" y="280" as="sourcePoint" />
            <mxPoint x="161.5384615384612" y="220.0000000000001" as="targetPoint" />
          </mxGeometry>
        </mxCell>
        <mxCell id="EhGMXCnS99L2GmcN4ixf-14" style="edgeStyle=none;rounded=0;html=1;dashed=1;labelBackgroundColor=none;startArrow=none;startFill=0;startSize=8;endArrow=open;endFill=0;endSize=16;fontFamily=Verdana;fontSize=12;exitX=0;exitY=0;exitDx=0;exitDy=40;exitPerimeter=0;entryX=1.01;entryY=0.201;entryDx=0;entryDy=0;entryPerimeter=0;" parent="1" source="EhGMXCnS99L2GmcN4ixf-8" target="39150e848f15840c-1" edge="1">
          <mxGeometry relative="1" as="geometry">
            <mxPoint x="100" y="290" as="sourcePoint" />
            <mxPoint x="171.5384615384612" y="230.0000000000001" as="targetPoint" />
          </mxGeometry>
        </mxCell>
        <mxCell id="EhGMXCnS99L2GmcN4ixf-15" style="edgeStyle=none;rounded=0;html=1;dashed=1;labelBackgroundColor=none;startArrow=none;startFill=0;startSize=8;endArrow=open;endFill=0;endSize=16;fontFamily=Verdana;fontSize=12;exitX=0;exitY=0;exitDx=0;exitDy=40;exitPerimeter=0;" parent="1" source="EhGMXCnS99L2GmcN4ixf-9" edge="1">
          <mxGeometry relative="1" as="geometry">
            <mxPoint x="90" y="280" as="sourcePoint" />
            <mxPoint x="160" y="210" as="targetPoint" />
            <Array as="points">
              <mxPoint x="140" y="340" />
            </Array>
          </mxGeometry>
        </mxCell>
        <mxCell id="EhGMXCnS99L2GmcN4ixf-16" style="edgeStyle=none;rounded=0;html=1;dashed=1;labelBackgroundColor=none;startArrow=none;startFill=0;startSize=8;endArrow=open;endFill=0;endSize=16;fontFamily=Verdana;fontSize=12;exitX=0;exitY=0;exitDx=0;exitDy=40;exitPerimeter=0;entryX=0;entryY=0;entryDx=140;entryDy=120;entryPerimeter=0;" parent="1" source="EhGMXCnS99L2GmcN4ixf-10" target="39150e848f15840c-1" edge="1">
          <mxGeometry relative="1" as="geometry">
            <mxPoint x="100" y="290" as="sourcePoint" />
            <mxPoint x="171.5384615384612" y="230.0000000000001" as="targetPoint" />
            <Array as="points">
              <mxPoint x="280" y="320" />
            </Array>
          </mxGeometry>
        </mxCell>
        <mxCell id="EhGMXCnS99L2GmcN4ixf-17" style="edgeStyle=none;rounded=0;html=1;dashed=1;labelBackgroundColor=none;startArrow=none;startFill=0;startSize=8;endArrow=open;endFill=0;endSize=16;fontFamily=Verdana;fontSize=12;exitX=0;exitY=0;exitDx=0;exitDy=45;exitPerimeter=0;" parent="1" source="EhGMXCnS99L2GmcN4ixf-11" edge="1">
          <mxGeometry relative="1" as="geometry">
            <mxPoint x="110" y="300" as="sourcePoint" />
            <mxPoint x="300" y="210" as="targetPoint" />
            <Array as="points">
              <mxPoint x="400" y="350" />
              <mxPoint x="400" y="260" />
            </Array>
          </mxGeometry>
        </mxCell>
        <mxCell id="MlD1wx-Nhup3MehmvixC-36" style="edgeStyle=orthogonalEdgeStyle;rounded=0;orthogonalLoop=1;jettySize=auto;html=1;exitX=0;exitY=0;exitDx=65;exitDy=0;exitPerimeter=0;entryX=0;entryY=0;entryDx=75;entryDy=230;entryPerimeter=0;" edge="1" parent="1" source="EhGMXCnS99L2GmcN4ixf-18" target="EhGMXCnS99L2GmcN4ixf-66">
          <mxGeometry relative="1" as="geometry" />
        </mxCell>
        <mxCell id="EhGMXCnS99L2GmcN4ixf-18" value="Operasyon" style="verticalAlign=top;align=left;spacingTop=8;spacingLeft=2;spacingRight=12;shape=cube;size=10;direction=south;fontStyle=4;html=1;rounded=0;shadow=0;comic=0;labelBackgroundColor=none;strokeWidth=1;fontFamily=Verdana;fontSize=12;fillColor=#dae8fc;strokeColor=#6c8ebf;" parent="1" vertex="1">
          <mxGeometry x="710" y="70" width="230" height="140" as="geometry" />
        </mxCell>
        <mxCell id="EhGMXCnS99L2GmcN4ixf-21" value="Icon" style="icon;html=1;image=img/clipart/Gear_128x128.png" parent="1" vertex="1">
          <mxGeometry x="900" y="100" width="10" height="20" as="geometry" />
        </mxCell>
        <mxCell id="EhGMXCnS99L2GmcN4ixf-61" style="edgeStyle=orthogonalEdgeStyle;rounded=0;orthogonalLoop=1;jettySize=auto;html=1;exitX=0.5;exitY=0;exitDx=0;exitDy=0;entryX=0;entryY=0;entryDx=140;entryDy=120;entryPerimeter=0;" parent="1" source="EhGMXCnS99L2GmcN4ixf-45" target="EhGMXCnS99L2GmcN4ixf-18" edge="1">
          <mxGeometry relative="1" as="geometry" />
        </mxCell>
        <mxCell id="EhGMXCnS99L2GmcN4ixf-94" style="edgeStyle=elbowEdgeStyle;rounded=0;orthogonalLoop=1;jettySize=auto;elbow=vertical;html=1;exitX=0.5;exitY=1;exitDx=0;exitDy=0;entryX=0.5;entryY=0;entryDx=0;entryDy=0;" parent="1" source="EhGMXCnS99L2GmcN4ixf-45" target="EhGMXCnS99L2GmcN4ixf-68" edge="1">
          <mxGeometry relative="1" as="geometry" />
        </mxCell>
        <mxCell id="EhGMXCnS99L2GmcN4ixf-45" value="CNC" style="whiteSpace=wrap;html=1;align=center;verticalAlign=middle;treeFolding=1;treeMoving=1;fillColor=#dae8fc;strokeColor=#6c8ebf;" parent="1" vertex="1">
          <mxGeometry x="590" y="260" width="100" height="60" as="geometry" />
        </mxCell>
        <mxCell id="EhGMXCnS99L2GmcN4ixf-62" style="edgeStyle=orthogonalEdgeStyle;rounded=0;orthogonalLoop=1;jettySize=auto;html=1;exitX=0.5;exitY=0;exitDx=0;exitDy=0;entryX=0;entryY=0;entryDx=140;entryDy=120;entryPerimeter=0;" parent="1" source="EhGMXCnS99L2GmcN4ixf-46" target="EhGMXCnS99L2GmcN4ixf-18" edge="1">
          <mxGeometry relative="1" as="geometry" />
        </mxCell>
        <mxCell id="EhGMXCnS99L2GmcN4ixf-95" style="edgeStyle=elbowEdgeStyle;rounded=0;orthogonalLoop=1;jettySize=auto;elbow=vertical;html=1;exitX=0.5;exitY=1;exitDx=0;exitDy=0;entryX=0.5;entryY=0;entryDx=0;entryDy=0;" parent="1" source="EhGMXCnS99L2GmcN4ixf-46" target="EhGMXCnS99L2GmcN4ixf-69" edge="1">
          <mxGeometry relative="1" as="geometry" />
        </mxCell>
        <mxCell id="EhGMXCnS99L2GmcN4ixf-46" value="DELİK AÇMA" style="whiteSpace=wrap;html=1;align=center;verticalAlign=middle;treeFolding=1;treeMoving=1;fillColor=#dae8fc;strokeColor=#6c8ebf;" parent="1" vertex="1">
          <mxGeometry x="710" y="260" width="100" height="60" as="geometry" />
        </mxCell>
        <mxCell id="EhGMXCnS99L2GmcN4ixf-63" style="edgeStyle=orthogonalEdgeStyle;rounded=0;orthogonalLoop=1;jettySize=auto;html=1;exitX=0.5;exitY=0;exitDx=0;exitDy=0;entryX=0;entryY=0;entryDx=140;entryDy=120;entryPerimeter=0;" parent="1" source="EhGMXCnS99L2GmcN4ixf-47" target="EhGMXCnS99L2GmcN4ixf-18" edge="1">
          <mxGeometry relative="1" as="geometry" />
        </mxCell>
        <mxCell id="EhGMXCnS99L2GmcN4ixf-96" style="edgeStyle=elbowEdgeStyle;rounded=0;orthogonalLoop=1;jettySize=auto;elbow=vertical;html=1;exitX=0.5;exitY=1;exitDx=0;exitDy=0;entryX=0.5;entryY=0;entryDx=0;entryDy=0;" parent="1" source="EhGMXCnS99L2GmcN4ixf-47" target="EhGMXCnS99L2GmcN4ixf-71" edge="1">
          <mxGeometry relative="1" as="geometry" />
        </mxCell>
        <mxCell id="EhGMXCnS99L2GmcN4ixf-47" value="EDM" style="whiteSpace=wrap;html=1;align=center;verticalAlign=middle;treeFolding=1;treeMoving=1;fillColor=#dae8fc;strokeColor=#6c8ebf;" parent="1" vertex="1">
          <mxGeometry x="840" y="260" width="100" height="60" as="geometry" />
        </mxCell>
        <mxCell id="EhGMXCnS99L2GmcN4ixf-64" style="edgeStyle=orthogonalEdgeStyle;rounded=0;orthogonalLoop=1;jettySize=auto;html=1;exitX=0.5;exitY=0;exitDx=0;exitDy=0;entryX=0;entryY=0;entryDx=140;entryDy=120;entryPerimeter=0;" parent="1" source="EhGMXCnS99L2GmcN4ixf-48" target="EhGMXCnS99L2GmcN4ixf-18" edge="1">
          <mxGeometry relative="1" as="geometry" />
        </mxCell>
        <mxCell id="EhGMXCnS99L2GmcN4ixf-97" style="edgeStyle=elbowEdgeStyle;rounded=0;orthogonalLoop=1;jettySize=auto;elbow=vertical;html=1;exitX=0.5;exitY=1;exitDx=0;exitDy=0;" parent="1" source="EhGMXCnS99L2GmcN4ixf-48" target="EhGMXCnS99L2GmcN4ixf-72" edge="1">
          <mxGeometry relative="1" as="geometry" />
        </mxCell>
        <mxCell id="EhGMXCnS99L2GmcN4ixf-48" value="FASON" style="whiteSpace=wrap;html=1;align=center;verticalAlign=middle;treeFolding=1;treeMoving=1;fillColor=#dae8fc;strokeColor=#6c8ebf;" parent="1" vertex="1">
          <mxGeometry x="960" y="260" width="100" height="60" as="geometry" />
        </mxCell>
        <mxCell id="EhGMXCnS99L2GmcN4ixf-53" value="" style="endArrow=classic;html=1;rounded=0;exitX=1;exitY=0.5;exitDx=0;exitDy=0;entryX=0;entryY=0.5;entryDx=0;entryDy=0;" parent="1" source="EhGMXCnS99L2GmcN4ixf-45" target="EhGMXCnS99L2GmcN4ixf-46" edge="1">
          <mxGeometry width="50" height="50" relative="1" as="geometry">
            <mxPoint x="600" y="340" as="sourcePoint" />
            <mxPoint x="650" y="290" as="targetPoint" />
          </mxGeometry>
        </mxCell>
        <mxCell id="EhGMXCnS99L2GmcN4ixf-54" value="" style="endArrow=classic;html=1;rounded=0;exitX=1;exitY=0.5;exitDx=0;exitDy=0;entryX=0;entryY=0.5;entryDx=0;entryDy=0;" parent="1" source="EhGMXCnS99L2GmcN4ixf-46" target="EhGMXCnS99L2GmcN4ixf-47" edge="1">
          <mxGeometry width="50" height="50" relative="1" as="geometry">
            <mxPoint x="810" y="340" as="sourcePoint" />
            <mxPoint x="860" y="290" as="targetPoint" />
          </mxGeometry>
        </mxCell>
        <mxCell id="EhGMXCnS99L2GmcN4ixf-55" value="" style="endArrow=classic;html=1;rounded=0;exitX=1;exitY=0.5;exitDx=0;exitDy=0;" parent="1" source="EhGMXCnS99L2GmcN4ixf-47" edge="1">
          <mxGeometry width="50" height="50" relative="1" as="geometry">
            <mxPoint x="940" y="350" as="sourcePoint" />
            <mxPoint x="960" y="290" as="targetPoint" />
          </mxGeometry>
        </mxCell>
        <mxCell id="EhGMXCnS99L2GmcN4ixf-65" value="Öncelik sıralaması" style="text;html=1;align=center;verticalAlign=middle;resizable=0;points=[];autosize=1;strokeColor=none;fillColor=none;" parent="1" vertex="1">
          <mxGeometry x="770" y="320" width="120" height="20" as="geometry" />
        </mxCell>
        <mxCell id="MlD1wx-Nhup3MehmvixC-16" style="edgeStyle=orthogonalEdgeStyle;rounded=0;orthogonalLoop=1;jettySize=auto;html=1;" edge="1" parent="1" source="EhGMXCnS99L2GmcN4ixf-66">
          <mxGeometry relative="1" as="geometry">
            <mxPoint x="1235" y="327.5" as="targetPoint" />
          </mxGeometry>
        </mxCell>
        <mxCell id="EhGMXCnS99L2GmcN4ixf-66" value="Makinalar" style="verticalAlign=top;align=left;spacingTop=8;spacingLeft=2;spacingRight=12;shape=cube;size=10;direction=south;fontStyle=4;html=1;rounded=0;shadow=0;comic=0;labelBackgroundColor=none;strokeWidth=1;fontFamily=Verdana;fontSize=12;fillColor=#ffe6cc;strokeColor=#d79b00;" parent="1" vertex="1">
          <mxGeometry x="1120" y="147.5" width="230" height="140" as="geometry" />
        </mxCell>
        <mxCell id="EhGMXCnS99L2GmcN4ixf-67" value="&lt;div&gt;«interface»&lt;b&gt;&lt;br&gt;&lt;/b&gt;&lt;/div&gt;&lt;div&gt;&lt;b&gt;machines&lt;/b&gt;&lt;/div&gt;" style="html=1;rounded=0;shadow=0;comic=0;labelBackgroundColor=none;strokeWidth=1;fontFamily=Verdana;fontSize=12;align=center;" parent="1" vertex="1">
          <mxGeometry x="1180" y="200" width="110" height="50" as="geometry" />
        </mxCell>
        <mxCell id="EhGMXCnS99L2GmcN4ixf-82" style="edgeStyle=orthogonalEdgeStyle;rounded=0;orthogonalLoop=1;jettySize=auto;html=1;entryX=0.5;entryY=0;entryDx=0;entryDy=0;" parent="1" source="EhGMXCnS99L2GmcN4ixf-68" target="EhGMXCnS99L2GmcN4ixf-74" edge="1">
          <mxGeometry relative="1" as="geometry" />
        </mxCell>
        <mxCell id="EhGMXCnS99L2GmcN4ixf-68" value="Mak1" style="html=1;" parent="1" vertex="1">
          <mxGeometry x="597.5" y="350" width="92.5" height="160" as="geometry" />
        </mxCell>
        <mxCell id="EhGMXCnS99L2GmcN4ixf-81" style="edgeStyle=orthogonalEdgeStyle;rounded=0;orthogonalLoop=1;jettySize=auto;html=1;" parent="1" source="EhGMXCnS99L2GmcN4ixf-69" target="EhGMXCnS99L2GmcN4ixf-73" edge="1">
          <mxGeometry relative="1" as="geometry" />
        </mxCell>
        <mxCell id="EhGMXCnS99L2GmcN4ixf-69" value="Mak2" style="html=1;" parent="1" vertex="1">
          <mxGeometry x="717.5" y="350" width="85" height="50" as="geometry" />
        </mxCell>
        <mxCell id="EhGMXCnS99L2GmcN4ixf-85" style="edgeStyle=orthogonalEdgeStyle;rounded=0;orthogonalLoop=1;jettySize=auto;html=1;entryX=0.5;entryY=0;entryDx=0;entryDy=0;" parent="1" source="EhGMXCnS99L2GmcN4ixf-71" target="EhGMXCnS99L2GmcN4ixf-77" edge="1">
          <mxGeometry relative="1" as="geometry" />
        </mxCell>
        <mxCell id="EhGMXCnS99L2GmcN4ixf-71" value="Mak3" style="html=1;" parent="1" vertex="1">
          <mxGeometry x="847.5" y="350" width="85" height="50" as="geometry" />
        </mxCell>
        <mxCell id="EhGMXCnS99L2GmcN4ixf-90" style="edgeStyle=orthogonalEdgeStyle;rounded=0;orthogonalLoop=1;jettySize=auto;html=1;exitX=0.5;exitY=1;exitDx=0;exitDy=0;entryX=0;entryY=0;entryDx=140;entryDy=120;entryPerimeter=0;" parent="1" source="EhGMXCnS99L2GmcN4ixf-72" edge="1">
          <mxGeometry relative="1" as="geometry">
            <mxPoint x="1240" y="480" as="targetPoint" />
            <Array as="points">
              <mxPoint x="1010" y="600" />
              <mxPoint x="1240" y="600" />
            </Array>
          </mxGeometry>
        </mxCell>
        <mxCell id="EhGMXCnS99L2GmcN4ixf-72" value="Fason" style="html=1;" parent="1" vertex="1">
          <mxGeometry x="967.5" y="350" width="85" height="50" as="geometry" />
        </mxCell>
        <mxCell id="EhGMXCnS99L2GmcN4ixf-92" style="rounded=0;orthogonalLoop=1;jettySize=auto;html=1;exitX=0.5;exitY=1;exitDx=0;exitDy=0;edgeStyle=elbowEdgeStyle;elbow=vertical;entryX=0;entryY=0;entryDx=140;entryDy=120;entryPerimeter=0;" parent="1" source="EhGMXCnS99L2GmcN4ixf-73" edge="1">
          <mxGeometry relative="1" as="geometry">
            <mxPoint x="1240" y="480" as="targetPoint" />
            <Array as="points">
              <mxPoint x="950" y="660" />
              <mxPoint x="1010" y="700" />
              <mxPoint x="1000" y="670" />
            </Array>
          </mxGeometry>
        </mxCell>
        <mxCell id="EhGMXCnS99L2GmcN4ixf-73" value="Mak6" style="html=1;" parent="1" vertex="1">
          <mxGeometry x="717.5" y="435" width="85" height="50" as="geometry" />
        </mxCell>
        <mxCell id="EhGMXCnS99L2GmcN4ixf-83" style="edgeStyle=orthogonalEdgeStyle;rounded=0;orthogonalLoop=1;jettySize=auto;html=1;entryX=0.5;entryY=0;entryDx=0;entryDy=0;" parent="1" source="EhGMXCnS99L2GmcN4ixf-74" target="EhGMXCnS99L2GmcN4ixf-75" edge="1">
          <mxGeometry relative="1" as="geometry" />
        </mxCell>
        <mxCell id="EhGMXCnS99L2GmcN4ixf-74" value="Mak5" style="html=1;" parent="1" vertex="1">
          <mxGeometry x="600" y="520" width="85" height="50" as="geometry" />
        </mxCell>
        <mxCell id="EhGMXCnS99L2GmcN4ixf-84" style="edgeStyle=orthogonalEdgeStyle;rounded=0;orthogonalLoop=1;jettySize=auto;html=1;entryX=0.5;entryY=0;entryDx=0;entryDy=0;" parent="1" source="EhGMXCnS99L2GmcN4ixf-75" target="EhGMXCnS99L2GmcN4ixf-76" edge="1">
          <mxGeometry relative="1" as="geometry" />
        </mxCell>
        <mxCell id="EhGMXCnS99L2GmcN4ixf-75" value="Mak8" style="html=1;" parent="1" vertex="1">
          <mxGeometry x="600" y="595" width="85" height="50" as="geometry" />
        </mxCell>
        <mxCell id="EhGMXCnS99L2GmcN4ixf-93" style="edgeStyle=elbowEdgeStyle;rounded=0;orthogonalLoop=1;jettySize=auto;elbow=vertical;html=1;exitX=0.5;exitY=1;exitDx=0;exitDy=0;entryX=0;entryY=0;entryDx=140;entryDy=120;entryPerimeter=0;" parent="1" source="EhGMXCnS99L2GmcN4ixf-76" edge="1">
          <mxGeometry relative="1" as="geometry">
            <mxPoint x="1240" y="480" as="targetPoint" />
            <Array as="points">
              <mxPoint x="930" y="690" />
              <mxPoint x="930" y="770" />
            </Array>
          </mxGeometry>
        </mxCell>
        <mxCell id="EhGMXCnS99L2GmcN4ixf-76" value="Mak10" style="html=1;" parent="1" vertex="1">
          <mxGeometry x="600" y="675" width="85" height="50" as="geometry" />
        </mxCell>
        <mxCell id="EhGMXCnS99L2GmcN4ixf-86" style="edgeStyle=orthogonalEdgeStyle;rounded=0;orthogonalLoop=1;jettySize=auto;html=1;entryX=0.5;entryY=0;entryDx=0;entryDy=0;" parent="1" source="EhGMXCnS99L2GmcN4ixf-77" target="EhGMXCnS99L2GmcN4ixf-78" edge="1">
          <mxGeometry relative="1" as="geometry" />
        </mxCell>
        <mxCell id="EhGMXCnS99L2GmcN4ixf-77" value="Mak7" style="html=1;" parent="1" vertex="1">
          <mxGeometry x="847.5" y="435" width="85" height="50" as="geometry" />
        </mxCell>
        <mxCell id="EhGMXCnS99L2GmcN4ixf-89" style="edgeStyle=orthogonalEdgeStyle;rounded=0;orthogonalLoop=1;jettySize=auto;html=1;exitX=0.5;exitY=1;exitDx=0;exitDy=0;entryX=0;entryY=0;entryDx=140;entryDy=120;entryPerimeter=0;" parent="1" source="EhGMXCnS99L2GmcN4ixf-78" edge="1">
          <mxGeometry relative="1" as="geometry">
            <Array as="points">
              <mxPoint x="890" y="630" />
              <mxPoint x="1240" y="630" />
            </Array>
            <mxPoint x="1240" y="480" as="targetPoint" />
          </mxGeometry>
        </mxCell>
        <mxCell id="EhGMXCnS99L2GmcN4ixf-78" value="Mak9" style="html=1;" parent="1" vertex="1">
          <mxGeometry x="847.5" y="520" width="85" height="50" as="geometry" />
        </mxCell>
        <mxCell id="EhGMXCnS99L2GmcN4ixf-99" value="&lt;ol&gt;&lt;li&gt;CNC(mak1)&lt;/li&gt;&lt;li&gt;DELİK AÇ&lt;br&gt;&lt;/li&gt;&lt;li&gt;EDM&lt;br&gt;&lt;/li&gt;&lt;/ol&gt;" style="text;strokeColor=none;fillColor=none;html=1;whiteSpace=wrap;verticalAlign=middle;overflow=hidden;" parent="1" vertex="1">
          <mxGeometry x="10" y="290" width="110" height="70" as="geometry" />
        </mxCell>
        <mxCell id="EhGMXCnS99L2GmcN4ixf-100" value="&lt;ol&gt;&lt;li&gt;CNC&lt;/li&gt;&lt;li&gt;EDM&lt;/li&gt;&lt;li&gt;&lt;br&gt;&lt;/li&gt;&lt;/ol&gt;" style="text;strokeColor=none;fillColor=none;html=1;whiteSpace=wrap;verticalAlign=middle;overflow=hidden;" parent="1" vertex="1">
          <mxGeometry x="140" y="290" width="100" height="70" as="geometry" />
        </mxCell>
        <mxCell id="EhGMXCnS99L2GmcN4ixf-105" value="&lt;ol&gt;&lt;li&gt;CNC&lt;/li&gt;&lt;li&gt;DELİK AÇ&lt;br&gt;&lt;/li&gt;&lt;li&gt;EDM&lt;br&gt;&lt;/li&gt;&lt;/ol&gt;" style="text;strokeColor=none;fillColor=none;html=1;whiteSpace=wrap;verticalAlign=middle;overflow=hidden;" parent="1" vertex="1">
          <mxGeometry x="270" y="290" width="100" height="70" as="geometry" />
        </mxCell>
        <mxCell id="EhGMXCnS99L2GmcN4ixf-107" value="&lt;ol&gt;&lt;li&gt;CNC&lt;/li&gt;&lt;li&gt;DELİK AÇ&lt;br&gt;&lt;/li&gt;&lt;li&gt;EDM&lt;br&gt;&lt;/li&gt;&lt;/ol&gt;" style="text;strokeColor=none;fillColor=none;html=1;whiteSpace=wrap;verticalAlign=middle;overflow=hidden;" parent="1" vertex="1">
          <mxGeometry x="10" y="422" width="100" height="70" as="geometry" />
        </mxCell>
        <mxCell id="EhGMXCnS99L2GmcN4ixf-108" value="&lt;ol&gt;&lt;li&gt;CNC&lt;/li&gt;&lt;li&gt;DELİK AÇ&lt;br&gt;&lt;/li&gt;&lt;li&gt;EDM&lt;br&gt;&lt;/li&gt;&lt;/ol&gt;" style="text;strokeColor=none;fillColor=none;html=1;whiteSpace=wrap;verticalAlign=middle;overflow=hidden;" parent="1" vertex="1">
          <mxGeometry x="140" y="422" width="100" height="70" as="geometry" />
        </mxCell>
        <mxCell id="EhGMXCnS99L2GmcN4ixf-109" value="&lt;ol&gt;&lt;li&gt;CNC&lt;/li&gt;&lt;li&gt;DELİK AÇ&lt;br&gt;&lt;/li&gt;&lt;li&gt;EDM&lt;br&gt;&lt;/li&gt;&lt;/ol&gt;" style="text;strokeColor=none;fillColor=none;html=1;whiteSpace=wrap;verticalAlign=middle;overflow=hidden;" parent="1" vertex="1">
          <mxGeometry x="270" y="422" width="100" height="70" as="geometry" />
        </mxCell>
        <mxCell id="MlD1wx-Nhup3MehmvixC-1" value="" style="shape=curlyBracket;whiteSpace=wrap;html=1;rounded=1;" vertex="1" parent="1">
          <mxGeometry y="290" width="20" height="165" as="geometry" />
        </mxCell>
        <mxCell id="MlD1wx-Nhup3MehmvixC-26" style="edgeStyle=orthogonalEdgeStyle;rounded=0;orthogonalLoop=1;jettySize=auto;html=1;exitX=0;exitY=0;exitDx=0;exitDy=110;exitPerimeter=0;entryX=0;entryY=0;entryDx=0;entryDy=110;entryPerimeter=0;" edge="1" parent="1" source="MlD1wx-Nhup3MehmvixC-2" target="EhGMXCnS99L2GmcN4ixf-18">
          <mxGeometry relative="1" as="geometry">
            <mxPoint x="860" y="40" as="targetPoint" />
            <Array as="points">
              <mxPoint x="-130" y="20" />
              <mxPoint x="830" y="20" />
            </Array>
          </mxGeometry>
        </mxCell>
        <mxCell id="MlD1wx-Nhup3MehmvixC-2" value="Parçalar" style="verticalAlign=top;align=left;spacingTop=8;spacingLeft=2;spacingRight=12;shape=cube;size=10;direction=south;fontStyle=4;html=1;rounded=0;shadow=0;comic=0;labelBackgroundColor=none;strokeWidth=1;fontFamily=Verdana;fontSize=12;fillColor=#f5f5f5;strokeColor=#666666;fontColor=#333333;" vertex="1" parent="1">
          <mxGeometry x="-250" y="305" width="230" height="140" as="geometry" />
        </mxCell>
        <mxCell id="MlD1wx-Nhup3MehmvixC-5" value="&lt;div&gt;Parça1&lt;/div&gt;&lt;div&gt;&lt;pre&gt;&lt;br&gt;&lt;/pre&gt;&lt;/div&gt;" style="verticalAlign=top;align=left;spacingTop=8;spacingLeft=2;spacingRight=12;shape=cube;size=10;direction=south;fontStyle=4;html=1;rounded=0;shadow=0;comic=0;labelBackgroundColor=none;strokeWidth=1;fontFamily=Verdana;fontSize=12;fillColor=#dae8fc;strokeColor=#6c8ebf;" vertex="1" parent="1">
          <mxGeometry x="497.5" y="340" width="40" height="35" as="geometry" />
        </mxCell>
        <mxCell id="MlD1wx-Nhup3MehmvixC-6" value="Parça2" style="verticalAlign=top;align=left;spacingTop=8;spacingLeft=2;spacingRight=12;shape=cube;size=10;direction=south;fontStyle=4;html=1;rounded=0;shadow=0;comic=0;labelBackgroundColor=none;strokeWidth=1;fontFamily=Verdana;fontSize=12;fillColor=#ffe6cc;strokeColor=#d79b00;" vertex="1" parent="1">
          <mxGeometry x="497.5" y="400" width="42.5" height="35" as="geometry" />
        </mxCell>
        <mxCell id="MlD1wx-Nhup3MehmvixC-13" style="edgeStyle=orthogonalEdgeStyle;rounded=0;orthogonalLoop=1;jettySize=auto;html=1;entryX=0;entryY=0.5;entryDx=0;entryDy=0;" edge="1" parent="1" source="MlD1wx-Nhup3MehmvixC-12" target="EhGMXCnS99L2GmcN4ixf-45">
          <mxGeometry relative="1" as="geometry" />
        </mxCell>
        <mxCell id="MlD1wx-Nhup3MehmvixC-14" style="edgeStyle=orthogonalEdgeStyle;rounded=0;orthogonalLoop=1;jettySize=auto;html=1;exitX=0.5;exitY=0;exitDx=0;exitDy=0;entryX=0;entryY=0;entryDx=140;entryDy=120.00000000000001;entryPerimeter=0;" edge="1" parent="1" source="MlD1wx-Nhup3MehmvixC-12" target="EhGMXCnS99L2GmcN4ixf-18">
          <mxGeometry relative="1" as="geometry" />
        </mxCell>
        <mxCell id="MlD1wx-Nhup3MehmvixC-12" value="HAMMADDE" style="whiteSpace=wrap;html=1;align=center;verticalAlign=middle;treeFolding=1;treeMoving=1;fillColor=#dae8fc;strokeColor=#6c8ebf;" vertex="1" parent="1">
          <mxGeometry x="470" y="260" width="100" height="60" as="geometry" />
        </mxCell>
        <mxCell id="MlD1wx-Nhup3MehmvixC-15" value="Operatör" style="verticalAlign=top;align=left;spacingTop=8;spacingLeft=2;spacingRight=12;shape=cube;size=10;direction=south;fontStyle=4;html=1;rounded=0;shadow=0;comic=0;labelBackgroundColor=none;strokeWidth=1;fontFamily=Verdana;fontSize=12;fillColor=#e1d5e7;strokeColor=#9673a6;" vertex="1" parent="1">
          <mxGeometry x="1120" y="332.5" width="230" height="140" as="geometry" />
        </mxCell>
        <mxCell id="MlD1wx-Nhup3MehmvixC-17" value="" style="shape=curlyBracket;whiteSpace=wrap;html=1;rounded=1;flipH=1;" vertex="1" parent="1">
          <mxGeometry x="1070" y="353" width="20" height="207" as="geometry" />
        </mxCell>
        <mxCell id="MlD1wx-Nhup3MehmvixC-18" value="&lt;div&gt;«interface»&lt;b&gt;&lt;br&gt;&lt;/b&gt;&lt;/div&gt;&lt;div&gt;&lt;b&gt;operatör&lt;/b&gt;&lt;/div&gt;" style="html=1;rounded=0;shadow=0;comic=0;labelBackgroundColor=none;strokeWidth=1;fontFamily=Verdana;fontSize=12;align=center;" vertex="1" parent="1">
          <mxGeometry x="1180" y="385" width="110" height="50" as="geometry" />
        </mxCell>
        <mxCell id="MlD1wx-Nhup3MehmvixC-19" value="Parça3" style="verticalAlign=top;align=left;spacingTop=8;spacingLeft=2;spacingRight=12;shape=cube;size=10;direction=south;fontStyle=4;html=1;rounded=0;shadow=0;comic=0;labelBackgroundColor=none;strokeWidth=1;fontFamily=Verdana;fontSize=12;fillColor=#fff2cc;strokeColor=#d6b656;" vertex="1" parent="1">
          <mxGeometry x="497.5" y="455" width="40" height="37.5" as="geometry" />
        </mxCell>
        <mxCell id="MlD1wx-Nhup3MehmvixC-20" value="&lt;div&gt;Parça1 Salı günü 2&lt;/div&gt;&lt;div&gt;&lt;pre&gt;&lt;br&gt;&lt;/pre&gt;&lt;/div&gt;" style="verticalAlign=top;align=left;spacingTop=8;spacingLeft=2;spacingRight=12;shape=cube;size=10;direction=south;fontStyle=4;html=1;rounded=0;shadow=0;comic=0;labelBackgroundColor=none;strokeWidth=1;fontFamily=Verdana;fontSize=12;fillColor=#dae8fc;strokeColor=#6c8ebf;" vertex="1" parent="1">
          <mxGeometry x="620" y="375" width="40" height="35" as="geometry" />
        </mxCell>
        <mxCell id="MlD1wx-Nhup3MehmvixC-21" value="&lt;div&gt;Parça1 Çarşamba günü 2&lt;/div&gt;&lt;div&gt;&lt;pre&gt;&lt;br&gt;&lt;/pre&gt;&lt;/div&gt;" style="verticalAlign=top;align=left;spacingTop=8;spacingLeft=2;spacingRight=12;shape=cube;size=10;direction=south;fontStyle=4;html=1;rounded=0;shadow=0;comic=0;labelBackgroundColor=none;strokeWidth=1;fontFamily=Verdana;fontSize=12;fillColor=#dae8fc;strokeColor=#6c8ebf;" vertex="1" parent="1">
          <mxGeometry x="730" y="445" width="40" height="35" as="geometry" />
        </mxCell>
        <mxCell id="MlD1wx-Nhup3MehmvixC-23" value="Parça2" style="verticalAlign=top;align=left;spacingTop=8;spacingLeft=2;spacingRight=12;shape=cube;size=10;direction=south;fontStyle=4;html=1;rounded=0;shadow=0;comic=0;labelBackgroundColor=none;strokeWidth=1;fontFamily=Verdana;fontSize=12;fillColor=#ffe6cc;strokeColor=#d79b00;" vertex="1" parent="1">
          <mxGeometry x="617.5" y="425" width="42.5" height="35" as="geometry" />
        </mxCell>
        <mxCell id="MlD1wx-Nhup3MehmvixC-24" value="Parça2" style="verticalAlign=top;align=left;spacingTop=8;spacingLeft=2;spacingRight=12;shape=cube;size=10;direction=south;fontStyle=4;html=1;rounded=0;shadow=0;comic=0;labelBackgroundColor=none;strokeWidth=1;fontFamily=Verdana;fontSize=12;fillColor=#ffe6cc;strokeColor=#d79b00;" vertex="1" parent="1">
          <mxGeometry x="730" y="510" width="42.5" height="35" as="geometry" />
        </mxCell>
        <mxCell id="MlD1wx-Nhup3MehmvixC-25" value="ÖNCELİK1" style="rounded=1;arcSize=10;whiteSpace=wrap;html=1;align=center;fillColor=none;" vertex="1" parent="1">
          <mxGeometry x="30" y="240" width="60" height="30" as="geometry" />
        </mxCell>
        <mxCell id="MlD1wx-Nhup3MehmvixC-28" value="peaces" style="swimlane;fontStyle=0;childLayout=stackLayout;horizontal=1;startSize=26;fillColor=none;horizontalStack=0;resizeParent=1;resizeParentMax=0;resizeLast=0;collapsible=1;marginBottom=0;" vertex="1" parent="1">
          <mxGeometry x="-180" y="331" width="130" height="104" as="geometry" />
        </mxCell>
        <mxCell id="MlD1wx-Nhup3MehmvixC-29" value="+ field: stages" style="text;strokeColor=none;fillColor=none;align=left;verticalAlign=top;spacingLeft=4;spacingRight=4;overflow=hidden;rotatable=0;points=[[0,0.5],[1,0.5]];portConstraint=eastwest;" vertex="1" parent="MlD1wx-Nhup3MehmvixC-28">
          <mxGeometry y="26" width="130" height="26" as="geometry" />
        </mxCell>
        <mxCell id="MlD1wx-Nhup3MehmvixC-30" value="+ field: type" style="text;strokeColor=none;fillColor=none;align=left;verticalAlign=top;spacingLeft=4;spacingRight=4;overflow=hidden;rotatable=0;points=[[0,0.5],[1,0.5]];portConstraint=eastwest;" vertex="1" parent="MlD1wx-Nhup3MehmvixC-28">
          <mxGeometry y="52" width="130" height="26" as="geometry" />
        </mxCell>
        <mxCell id="MlD1wx-Nhup3MehmvixC-31" value="+ field: type" style="text;strokeColor=none;fillColor=none;align=left;verticalAlign=top;spacingLeft=4;spacingRight=4;overflow=hidden;rotatable=0;points=[[0,0.5],[1,0.5]];portConstraint=eastwest;" vertex="1" parent="MlD1wx-Nhup3MehmvixC-28">
          <mxGeometry y="78" width="130" height="26" as="geometry" />
        </mxCell>
        <mxCell id="MlD1wx-Nhup3MehmvixC-32" value="oparation" style="swimlane;fontStyle=0;childLayout=stackLayout;horizontal=1;startSize=26;fillColor=none;horizontalStack=0;resizeParent=1;resizeParentMax=0;resizeLast=0;collapsible=1;marginBottom=0;" vertex="1" parent="1">
          <mxGeometry x="730" y="110" width="110" height="104" as="geometry" />
        </mxCell>
        <mxCell id="MlD1wx-Nhup3MehmvixC-33" value="+ date: bitiş tarihi" style="text;strokeColor=none;fillColor=none;align=left;verticalAlign=top;spacingLeft=4;spacingRight=4;overflow=hidden;rotatable=0;points=[[0,0.5],[1,0.5]];portConstraint=eastwest;" vertex="1" parent="MlD1wx-Nhup3MehmvixC-32">
          <mxGeometry y="26" width="110" height="26" as="geometry" />
        </mxCell>
        <mxCell id="MlD1wx-Nhup3MehmvixC-34" value="+ string: makina bilgisi" style="text;strokeColor=none;fillColor=none;align=left;verticalAlign=top;spacingLeft=4;spacingRight=4;overflow=hidden;rotatable=0;points=[[0,0.5],[1,0.5]];portConstraint=eastwest;" vertex="1" parent="MlD1wx-Nhup3MehmvixC-32">
          <mxGeometry y="52" width="110" height="26" as="geometry" />
        </mxCell>
        <mxCell id="MlD1wx-Nhup3MehmvixC-35" value="+ id: parça_no" style="text;strokeColor=none;fillColor=none;align=left;verticalAlign=top;spacingLeft=4;spacingRight=4;overflow=hidden;rotatable=0;points=[[0,0.5],[1,0.5]];portConstraint=eastwest;" vertex="1" parent="MlD1wx-Nhup3MehmvixC-32">
          <mxGeometry y="78" width="110" height="26" as="geometry" />
        </mxCell>
        <mxCell id="MlD1wx-Nhup3MehmvixC-37" value="ÖNCELİK3" style="rounded=1;arcSize=10;whiteSpace=wrap;html=1;align=center;fillColor=none;" vertex="1" parent="1">
          <mxGeometry x="160" y="240" width="60" height="30" as="geometry" />
        </mxCell>
        <mxCell id="MlD1wx-Nhup3MehmvixC-38" value="ÖNCELİK1" style="rounded=1;arcSize=10;whiteSpace=wrap;html=1;align=center;fillColor=none;" vertex="1" parent="1">
          <mxGeometry x="290" y="240" width="60" height="30" as="geometry" />
        </mxCell>
        <mxCell id="MlD1wx-Nhup3MehmvixC-39" value="ÖNCELİK7" style="rounded=1;arcSize=10;whiteSpace=wrap;html=1;align=center;fillColor=none;" vertex="1" parent="1">
          <mxGeometry x="30" y="375" width="60" height="30" as="geometry" />
        </mxCell>
        <mxCell id="MlD1wx-Nhup3MehmvixC-40" value="ÖNCELİK8" style="rounded=1;arcSize=10;whiteSpace=wrap;html=1;align=center;fillColor=none;" vertex="1" parent="1">
          <mxGeometry x="160" y="377" width="60" height="30" as="geometry" />
        </mxCell>
        <mxCell id="MlD1wx-Nhup3MehmvixC-41" value="ÖNCELİK5" style="rounded=1;arcSize=10;whiteSpace=wrap;html=1;align=center;fillColor=none;" vertex="1" parent="1">
          <mxGeometry x="290" y="377" width="60" height="30" as="geometry" />
        </mxCell>
      </root>
    </mxGraphModel>
  </diagram>
</mxfile>
